# Blender 4.2.1 LTS
# www.blender.org
mtllib shape.mtl
o Cone.002
v 9.415636 -0.818703 -2.004833
v 9.641166 -1.126395 -2.189864
v 9.897056 -1.402027 -2.206887
v 10.172556 -1.622432 -2.092972
v 10.476645 -1.798232 -1.851210
v 10.818424 -1.984068 -1.424147
v 11.110940 -2.199897 -0.900113
v 11.289824 -2.335171 -0.376263
v 11.314327 -2.364341 0.136103
v 11.214676 -2.307774 0.592668
v 11.039226 -2.212635 0.978413
v 10.806460 -2.113645 1.272130
v 10.545415 -1.999185 1.460242
v 10.272405 -1.842281 1.553079
v 9.995440 -1.618040 1.544844
v 9.719725 -1.316750 1.429086
v 9.464293 -0.986427 1.255460
v 9.248882 -0.701141 1.098275
v 9.063426 -0.489332 0.970654
v 8.914595 -0.334773 0.849896
v 8.796786 -0.212943 0.712257
v 8.705214 -0.119590 0.555935
v 8.639612 -0.053825 0.382683
v 8.599373 -0.013587 0.195090
v 8.585787 0.000000 0.000000
v 8.599373 -0.013587 -0.195090
v 8.639612 -0.053825 -0.382683
v 8.705379 -0.119770 -0.556386
v 8.795978 -0.211788 -0.713443
v 8.905218 -0.342906 -0.894976
v 9.033854 -0.483861 -1.197128
v 9.206137 -0.604394 -1.621625
v 10.721222 0.741369 -0.029005
v 11.690015 1.161678 1.892611
v 10.684561 -0.911022 2.683256
v 10.547544 -0.764015 2.752387
v 10.394679 -0.603140 2.781758
v 10.233018 -0.435066 2.770955
v 10.070164 -0.267609 2.721838
v 9.605818 1.022022 -3.417612
v 9.744107 0.884800 -3.398538
v 11.020031 2.436236 -2.417612
v 9.879718 0.758505 -3.342857
v 8.952536 1.675304 -2.800295
v 9.017879 1.609960 -2.973182
v 9.105818 1.522022 -3.124719
v 9.212970 1.414870 -3.249081
v 9.335219 1.292620 -3.341491
v 9.467868 1.159972 -3.398397
v 9.577199 0.705809 -2.361790
v 9.733713 0.698130 -2.372598
v 10.879037 1.687743 -1.380548
v 9.876185 0.679601 -2.358308
v 8.807963 0.876020 -1.681573
v 8.877292 0.823133 -1.856240
v 8.976765 0.773720 -2.013012
v 9.103021 0.735217 -2.146224
v 9.250501 0.713835 -2.250710
v 9.412390 0.707554 -2.322044
vn -0.3793 -0.4474 -0.8099
vn -0.8724 -0.3335 -0.3574
vn 0.6172 0.4313 -0.6581
vn 0.6998 0.3707 -0.6106
vn 0.8046 0.2931 -0.5164
vn 0.8867 0.2354 -0.3980
vn 0.9413 0.2043 -0.2687
vn 0.9820 0.1856 -0.0364
vn 0.9632 0.1938 0.1862
vn 0.9073 0.2199 0.3584
vn 0.7968 0.2701 0.5405
vn 0.6430 0.3334 0.6895
vn 0.4900 0.3918 0.7788
vn 0.8902 -0.3943 -0.2282
vn -0.6282 0.7667 0.1325
vn -0.4510 -0.6098 0.6517
vn -0.6392 -0.4805 0.6005
vn 0.0776 0.5635 0.8225
vn 0.0105 0.6219 0.7830
vn -0.0827 0.7100 0.6993
vn -0.1730 0.7977 0.5777
vn -0.2486 0.8706 0.4246
vn -0.2990 0.9179 0.2610
vn -0.3256 0.9414 0.0882
vn -0.3278 0.9406 -0.0883
vn -0.3053 0.9156 -0.2619
vn -0.9378 -0.2133 -0.2739
vn -0.8362 -0.3009 -0.4586
vn -0.8827 -0.3041 -0.3584
vn -0.3803 0.7755 0.5040
vn -0.6542 -0.7559 -0.0237
vn 0.9288 -0.2848 -0.2373
vn -0.8903 -0.3078 -0.3356
vn 0.5136 0.0768 0.8546
vn 0.3708 0.1862 0.9098
vn 0.2401 0.2905 0.9263
vn 0.1244 0.3887 0.9129
vn -0.7598 -0.4020 0.5110
vn -0.7302 -0.4084 0.5477
vn 0.3781 -0.7750 -0.5063
vn 0.8582 0.3684 0.3576
vn -0.8243 0.5422 0.1630
vn 0.5266 0.7539 0.3928
vn 0.4253 0.8779 0.2200
vn 0.7626 0.5030 0.4066
vn 0.4344 0.8926 0.1209
vn 0.9312 0.2306 0.2824
vn -0.8695 -0.2980 -0.3940
vn -0.7123 -0.3571 -0.6043
vn -0.0131 0.7155 -0.6985
vn 0.1569 0.6027 -0.7824
vn -0.2889 0.8784 -0.3807
vn -0.2662 0.8580 -0.4393
vn -0.2465 0.8434 -0.4774
vn -0.2326 0.8348 -0.4991
vn -0.2041 0.8196 -0.5353
vn -0.1373 0.7853 -0.6037
vn 0.6465 0.6356 0.4220
vn 0.4476 0.8355 0.3188
vt 0.841844 0.471731
vt 0.796822 0.485388
vt 0.616663 0.449553
vt 0.580294 0.419706
vt 0.341844 0.471731
vt 0.250000 0.250000
vt 0.383337 0.449553
vt 0.419706 0.419706
vt 0.449553 0.383337
vt 0.471731 0.341844
vt 0.485388 0.296822
vt 0.490000 0.250000
vt 0.485388 0.203178
vt 0.471731 0.158156
vt 0.449553 0.116663
vt 0.419706 0.080294
vt 0.383337 0.050447
vt 0.203178 0.014612
vt 0.841844 0.028269
vt 0.883337 0.050447
vt 0.796822 0.014612
vt 0.158156 0.028269
vt 0.116663 0.050447
vt 0.080294 0.080294
vt 0.050447 0.116663
vt 0.028269 0.158156
vt 0.014612 0.203178
vt 0.010000 0.250000
vt 0.014612 0.296822
vt 0.028269 0.341844
vt 0.550447 0.383337
vt 0.528269 0.341844
vt 0.750000 0.490000
vt 0.703178 0.485388
vt 0.658156 0.471731
vt 0.883337 0.449553
vt 0.919706 0.419706
vt 0.949553 0.383337
vt 0.971731 0.341844
vt 0.985388 0.296822
vt 0.990000 0.250000
vt 0.985388 0.203178
vt 0.971731 0.158156
vt 0.949553 0.116663
vt 0.919706 0.080294
vt 0.750000 0.010000
vt 0.703178 0.014612
vt 0.658156 0.028269
vt 0.616663 0.050447
vt 0.580294 0.080294
vt 0.550447 0.116663
vt 0.528269 0.158156
vt 0.514612 0.203178
vt 0.510000 0.250000
vt 0.514612 0.296822
vt 0.341844 0.028269
vt 0.296822 0.014612
vt 0.250000 0.010000
vt 0.250000 0.490000
vt 0.296822 0.485388
vt 0.050447 0.383337
vt 0.080294 0.419706
vt 0.116663 0.449553
vt 0.158156 0.471731
vt 0.203178 0.485388
s 0
f 3/1/1 2/2/1 41/2/1 43/1/1
f 30/3/2 29/4/2 46/4/2 47/3/2
f 3/5/3 33/6/3 4/7/3
f 4/7/4 33/6/4 5/8/4
f 5/8/5 33/6/5 6/9/5
f 6/9/6 33/6/6 7/10/6
f 7/10/7 33/6/7 8/11/7
f 8/11/8 33/6/8 9/12/8
f 9/12/9 33/6/9 10/13/9
f 10/13/10 33/6/10 11/14/10
f 11/14/11 33/6/11 12/15/11
f 12/15/12 33/6/12 13/16/12
f 13/16/13 33/6/13 14/17/13
f 14/17/14 33/6/14 34/6/14 35/17/14
f 33/6/15 18/18/15 39/18/15 34/6/15
f 15/19/16 14/20/16 35/20/16 36/19/16
f 16/21/17 15/19/17 36/19/17 37/21/17
f 18/18/18 33/6/18 19/22/18
f 19/22/19 33/6/19 20/23/19
f 20/23/20 33/6/20 21/24/20
f 21/24/21 33/6/21 22/25/21
f 22/25/22 33/6/22 23/26/22
f 23/26/23 33/6/23 24/27/23
f 24/27/24 33/6/24 25/28/24
f 25/28/25 33/6/25 26/29/25
f 26/29/26 33/6/26 27/30/26
f 28/31/27 27/32/27 44/32/27 45/31/27
f 1/33/28 32/34/28 49/34/28 40/33/28
f 31/35/29 30/3/29 47/3/29 48/35/29
f 27/30/30 33/6/30 42/6/30 44/30/30
f 1/33/31 2/2/31 3/1/31 4/36/31 5/37/31 6/38/31 7/39/31 8/40/31 9/41/31 10/42/31 11/43/31 12/44/31 13/45/31 14/20/31 15/19/31 16/21/31 17/46/31 18/47/31 19/48/31 20/49/31 21/50/31 22/51/31 23/52/31 24/53/31 25/54/31 26/55/31 27/32/31 28/31/31 29/4/31 30/3/31 31/35/31 32/34/31
f 33/6/32 3/5/32 43/5/32 42/6/32
f 29/4/33 28/31/33 45/31/33 46/4/33
f 35/17/34 34/6/34 36/56/34
f 36/56/35 34/6/35 37/57/35
f 37/57/36 34/6/36 38/58/36
f 38/58/37 34/6/37 39/18/37
f 18/47/38 17/46/38 38/46/38 39/47/38
f 17/46/39 16/21/39 37/21/39 38/46/39
f 44/30/40 42/6/40 52/6/40 54/30/40
f 46/4/41 45/31/41 55/31/41 56/4/41
f 42/6/42 43/5/42 53/5/42 52/6/42
f 49/34/43 48/35/43 58/35/43 59/34/43
f 41/2/44 40/33/44 50/33/44 51/2/44
f 47/3/45 46/4/45 56/4/45 57/3/45
f 43/1/46 41/2/46 51/2/46 53/1/46
f 45/31/47 44/32/47 54/32/47 55/31/47
f 32/34/48 31/35/48 48/35/48 49/34/48
f 2/2/49 1/33/49 40/33/49 41/2/49
f 50/59/50 52/6/50 51/60/50
f 51/60/51 52/6/51 53/5/51
f 54/30/52 52/6/52 55/61/52
f 55/61/53 52/6/53 56/62/53
f 56/62/54 52/6/54 57/63/54
f 57/63/55 52/6/55 58/64/55
f 58/64/56 52/6/56 59/65/56
f 59/65/57 52/6/57 50/59/57
f 48/35/58 47/3/58 57/3/58 58/35/58
f 40/33/59 49/34/59 59/34/59 50/33/59
